<?xml version="1.0" encoding="UTF-8" standalone="no"?>
<!DOCTYPE svg PUBLIC "-//W3C//DTD SVG 1.1//EN"
 "http://www.w3.org/Graphics/SVG/1.1/DTD/svg11.dtd">
<!-- Generated by graphviz version 2.43.0 (0)
 -->
<!-- Title: G Pages: 1 -->
<svg width="308pt" height="404pt"
 viewBox="0.00 0.00 308.27 404.00" xmlns="http://www.w3.org/2000/svg" xmlns:xlink="http://www.w3.org/1999/xlink">
<g id="graph0" class="graph" transform="scale(1 1) rotate(0) translate(4 400)">
<title>G</title>
<polygon fill="white" stroke="transparent" points="-4,4 -4,-400 304.27,-400 304.27,4 -4,4"/>
<!-- ranch_ssl_handshake -->
<g id="node1" class="node">
<title>ranch_ssl_handshake</title>
<ellipse fill="none" stroke="black" cx="150.14" cy="-378" rx="106.68" ry="18"/>
<text text-anchor="middle" x="150.14" y="-374.3" font-family="Times,serif" font-size="14.00">ranch_ssl:handshake</text>
</g>
<!-- ssl_handshake -->
<g id="node2" class="node">
<title>ssl_handshake</title>
<ellipse fill="none" stroke="black" cx="150.14" cy="-306" rx="76.09" ry="18"/>
<text text-anchor="middle" x="150.14" y="-302.3" font-family="Times,serif" font-size="14.00">ssl:handshake</text>
</g>
<!-- ranch_ssl_handshake&#45;&gt;ssl_handshake -->
<g id="edge1" class="edge">
<title>ranch_ssl_handshake&#45;&gt;ssl_handshake</title>
<path fill="none" stroke="black" d="M150.14,-359.7C150.14,-351.98 150.14,-342.71 150.14,-334.11"/>
<polygon fill="black" stroke="black" points="153.64,-334.1 150.14,-324.1 146.64,-334.1 153.64,-334.1"/>
</g>
<!-- ssl_connection_handshake -->
<g id="node3" class="node">
<title>ssl_connection_handshake</title>
<ellipse fill="none" stroke="black" cx="150.14" cy="-234" rx="130.78" ry="18"/>
<text text-anchor="middle" x="150.14" y="-230.3" font-family="Times,serif" font-size="14.00">ssl_connection:handshake</text>
</g>
<!-- ssl_handshake&#45;&gt;ssl_connection_handshake -->
<g id="edge2" class="edge">
<title>ssl_handshake&#45;&gt;ssl_connection_handshake</title>
<path fill="none" stroke="black" d="M150.14,-287.7C150.14,-279.98 150.14,-270.71 150.14,-262.11"/>
<polygon fill="black" stroke="black" points="153.64,-262.1 150.14,-252.1 146.64,-262.1 153.64,-262.1"/>
</g>
<!-- connection_start_fsm -->
<g id="node4" class="node">
<title>connection_start_fsm</title>
<ellipse fill="none" stroke="black" cx="150.14" cy="-162" rx="122.38" ry="18"/>
<text text-anchor="middle" x="150.14" y="-158.3" font-family="Times,serif" font-size="14.00">ConnectionCb:start_fsm</text>
</g>
<!-- ssl_connection_handshake&#45;&gt;connection_start_fsm -->
<g id="edge3" class="edge">
<title>ssl_connection_handshake&#45;&gt;connection_start_fsm</title>
<path fill="none" stroke="black" d="M150.14,-215.7C150.14,-207.98 150.14,-198.71 150.14,-190.11"/>
<polygon fill="black" stroke="black" points="153.64,-190.1 150.14,-180.1 146.64,-190.1 153.64,-190.1"/>
</g>
<!-- tls_connection_start_fsm -->
<g id="node5" class="node">
<title>tls_connection_start_fsm</title>
<ellipse fill="none" stroke="black" cx="150.14" cy="-90" rx="124.28" ry="18"/>
<text text-anchor="middle" x="150.14" y="-86.3" font-family="Times,serif" font-size="14.00">tls_connection:start_fsm</text>
</g>
<!-- connection_start_fsm&#45;&gt;tls_connection_start_fsm -->
<g id="edge4" class="edge">
<title>connection_start_fsm&#45;&gt;tls_connection_start_fsm</title>
<path fill="none" stroke="black" d="M150.14,-143.7C150.14,-135.98 150.14,-126.71 150.14,-118.11"/>
<polygon fill="black" stroke="black" points="153.64,-118.1 150.14,-108.1 146.64,-118.1 153.64,-118.1"/>
</g>
<!-- tls_connection_sup_start_child -->
<g id="node6" class="node">
<title>tls_connection_sup_start_child</title>
<ellipse fill="none" stroke="black" cx="150.14" cy="-18" rx="150.27" ry="18"/>
<text text-anchor="middle" x="150.14" y="-14.3" font-family="Times,serif" font-size="14.00">tls_connection_sup:start_child</text>
</g>
<!-- tls_connection_start_fsm&#45;&gt;tls_connection_sup_start_child -->
<g id="edge5" class="edge">
<title>tls_connection_start_fsm&#45;&gt;tls_connection_sup_start_child</title>
<path fill="none" stroke="black" d="M150.14,-71.7C150.14,-63.98 150.14,-54.71 150.14,-46.11"/>
<polygon fill="black" stroke="black" points="153.64,-46.1 150.14,-36.1 146.64,-46.1 153.64,-46.1"/>
</g>
</g>
</svg>
