<?xml version="1.0" encoding="UTF-8" standalone="no"?>
<!DOCTYPE svg PUBLIC "-//W3C//DTD SVG 1.1//EN"
 "http://www.w3.org/Graphics/SVG/1.1/DTD/svg11.dtd">
<!-- Generated by graphviz version 2.43.0 (0)
 -->
<!-- Title: G Pages: 1 -->
<svg width="1156pt" height="348pt"
 viewBox="0.00 0.00 1156.00 348.00" xmlns="http://www.w3.org/2000/svg" xmlns:xlink="http://www.w3.org/1999/xlink">
<g id="graph0" class="graph" transform="scale(1 1) rotate(0) translate(4 344)">
<title>G</title>
<polygon fill="white" stroke="transparent" points="-4,4 -4,-344 1152,-344 1152,4 -4,4"/>
<g id="clust1" class="cluster">
<title>cluster_0</title>
</g>
<g id="clust2" class="cluster">
<title>cluster_1</title>
</g>
<!-- ranch_sup -->
<g id="node1" class="node">
<title>ranch_sup</title>
<ellipse fill="none" stroke="black" cx="524" cy="-322" rx="57.69" ry="18"/>
<text text-anchor="middle" x="524" y="-318.3" font-family="Times,serif" font-size="14.00">ranch_sup</text>
</g>
<!-- ranch_listener_sup -->
<g id="node2" class="node">
<title>ranch_listener_sup</title>
<ellipse fill="none" stroke="black" cx="524" cy="-250" rx="98.28" ry="18"/>
<text text-anchor="middle" x="524" y="-246.3" font-family="Times,serif" font-size="14.00">ranch_listener_sup</text>
</g>
<!-- ranch_sup&#45;&gt;ranch_listener_sup -->
<g id="edge1" class="edge">
<title>ranch_sup&#45;&gt;ranch_listener_sup</title>
<path fill="none" stroke="black" d="M524,-303.7C524,-295.98 524,-286.71 524,-278.11"/>
<polygon fill="black" stroke="black" points="527.5,-278.1 524,-268.1 520.5,-278.1 527.5,-278.1"/>
</g>
<!-- ranch_conns_sup_sup -->
<g id="node3" class="node">
<title>ranch_conns_sup_sup</title>
<ellipse fill="none" stroke="black" cx="759" cy="-106" rx="110.48" ry="18"/>
<text text-anchor="middle" x="759" y="-102.3" font-family="Times,serif" font-size="14.00">ranch_conns_sup_sup</text>
</g>
<!-- ranch_listener_sup&#45;&gt;ranch_conns_sup_sup -->
<g id="edge2" class="edge">
<title>ranch_listener_sup&#45;&gt;ranch_conns_sup_sup</title>
<path fill="none" stroke="black" d="M551.42,-232.43C593.96,-206.73 675.87,-157.23 723.08,-128.7"/>
<polygon fill="black" stroke="black" points="725.01,-131.63 731.76,-123.46 721.39,-125.64 725.01,-131.63"/>
</g>
<!-- ranch_acceptors_sup -->
<g id="node7" class="node">
<title>ranch_acceptors_sup</title>
<ellipse fill="none" stroke="black" cx="354" cy="-178" rx="107.48" ry="18"/>
<text text-anchor="middle" x="354" y="-174.3" font-family="Times,serif" font-size="14.00">ranch_acceptors_sup</text>
</g>
<!-- ranch_listener_sup&#45;&gt;ranch_acceptors_sup -->
<g id="edge6" class="edge">
<title>ranch_listener_sup&#45;&gt;ranch_acceptors_sup</title>
<path fill="none" stroke="black" d="M485.85,-233.29C461.09,-223.09 428.61,-209.72 402.09,-198.8"/>
<polygon fill="black" stroke="black" points="403.19,-195.47 392.61,-194.9 400.53,-201.94 403.19,-195.47"/>
</g>
<!-- ranch_conns_sup1 -->
<g id="node4" class="node">
<title>ranch_conns_sup1</title>
<ellipse fill="none" stroke="black" cx="651" cy="-34" rx="89.08" ry="18"/>
<text text-anchor="middle" x="651" y="-30.3" font-family="Times,serif" font-size="14.00">ranch_conns_sup</text>
</g>
<!-- ranch_conns_sup_sup&#45;&gt;ranch_conns_sup1 -->
<g id="edge3" class="edge">
<title>ranch_conns_sup_sup&#45;&gt;ranch_conns_sup1</title>
<path fill="none" stroke="black" d="M733.41,-88.41C718.88,-79 700.52,-67.1 684.82,-56.92"/>
<polygon fill="black" stroke="black" points="686.71,-53.97 676.41,-51.47 682.9,-59.85 686.71,-53.97"/>
</g>
<!-- ranch_conns_sup2 -->
<g id="node5" class="node">
<title>ranch_conns_sup2</title>
<ellipse fill="none" stroke="black" cx="847" cy="-34" rx="89.08" ry="18"/>
<text text-anchor="middle" x="847" y="-30.3" font-family="Times,serif" font-size="14.00">ranch_conns_sup</text>
</g>
<!-- ranch_conns_sup_sup&#45;&gt;ranch_conns_sup2 -->
<g id="edge4" class="edge">
<title>ranch_conns_sup_sup&#45;&gt;ranch_conns_sup2</title>
<path fill="none" stroke="black" d="M780.3,-88.05C791.63,-79.05 805.71,-67.84 818.02,-58.05"/>
<polygon fill="black" stroke="black" points="820.55,-60.51 826.2,-51.55 816.19,-55.03 820.55,-60.51"/>
</g>
<!-- ranch_conns_sup3 -->
<g id="node6" class="node">
<title>ranch_conns_sup3</title>
<ellipse fill="none" stroke="black" cx="1043" cy="-34" rx="89.08" ry="18"/>
<text text-anchor="middle" x="1043" y="-30.3" font-family="Times,serif" font-size="14.00">ranch_conns_sup</text>
</g>
<!-- ranch_conns_sup_sup&#45;&gt;ranch_conns_sup3 -->
<g id="edge5" class="edge">
<title>ranch_conns_sup_sup&#45;&gt;ranch_conns_sup3</title>
<path fill="none" stroke="black" d="M817.16,-90.67C864.22,-79.07 930.43,-62.75 979,-50.78"/>
<polygon fill="black" stroke="black" points="979.9,-54.16 988.77,-48.37 978.22,-47.36 979.9,-54.16"/>
</g>
<!-- ranch_acceptor1 -->
<g id="node8" class="node">
<title>ranch_acceptor1</title>
<ellipse fill="none" stroke="black" cx="97" cy="-106" rx="81.49" ry="18"/>
<text text-anchor="middle" x="97" y="-102.3" font-family="Times,serif" font-size="14.00">ranch_acceptor</text>
</g>
<!-- ranch_acceptors_sup&#45;&gt;ranch_acceptor1 -->
<g id="edge7" class="edge">
<title>ranch_acceptors_sup&#45;&gt;ranch_acceptor1</title>
<path fill="none" stroke="black" d="M299.44,-162.41C266.8,-153.66 224.51,-142.26 187,-132 176.81,-129.21 165.97,-126.22 155.48,-123.31"/>
<polygon fill="black" stroke="black" points="156.13,-119.86 145.56,-120.56 154.26,-126.61 156.13,-119.86"/>
</g>
<!-- ranch_acceptor2 -->
<g id="node9" class="node">
<title>ranch_acceptor2</title>
<ellipse fill="none" stroke="black" cx="277" cy="-106" rx="81.49" ry="18"/>
<text text-anchor="middle" x="277" y="-102.3" font-family="Times,serif" font-size="14.00">ranch_acceptor</text>
</g>
<!-- ranch_acceptors_sup&#45;&gt;ranch_acceptor2 -->
<g id="edge8" class="edge">
<title>ranch_acceptors_sup&#45;&gt;ranch_acceptor2</title>
<path fill="none" stroke="black" d="M335.36,-160.05C325.55,-151.13 313.36,-140.06 302.67,-130.34"/>
<polygon fill="black" stroke="black" points="304.96,-127.68 295.2,-123.55 300.25,-132.86 304.96,-127.68"/>
</g>
<!-- ranch_acceptor3 -->
<g id="node10" class="node">
<title>ranch_acceptor3</title>
<ellipse fill="none" stroke="black" cx="457" cy="-106" rx="81.49" ry="18"/>
<text text-anchor="middle" x="457" y="-102.3" font-family="Times,serif" font-size="14.00">ranch_acceptor</text>
</g>
<!-- ranch_acceptors_sup&#45;&gt;ranch_acceptor3 -->
<g id="edge9" class="edge">
<title>ranch_acceptors_sup&#45;&gt;ranch_acceptor3</title>
<path fill="none" stroke="black" d="M378.41,-160.41C392.23,-151.02 409.7,-139.15 424.65,-128.98"/>
<polygon fill="black" stroke="black" points="426.82,-131.74 433.12,-123.23 422.88,-125.95 426.82,-131.74"/>
</g>
<!-- ranch_acceptor1&#45;&gt;ranch_conns_sup1 -->
<g id="edge10" class="edge">
<title>ranch_acceptor1&#45;&gt;ranch_conns_sup1</title>
<path fill="none" stroke="black" stroke-dasharray="1,5" d="M141.96,-90.85C156.24,-86.81 172.17,-82.76 187,-80 312.91,-56.59 460.44,-44.93 554.76,-39.43"/>
<polygon fill="black" stroke="black" points="555.07,-42.92 564.85,-38.86 554.67,-35.93 555.07,-42.92"/>
</g>
<!-- ranch_acceptor2&#45;&gt;ranch_conns_sup2 -->
<g id="edge11" class="edge">
<title>ranch_acceptor2&#45;&gt;ranch_conns_sup2</title>
<path fill="none" stroke="black" stroke-dasharray="1,5" d="M321.47,-90.77C335.86,-86.67 351.98,-82.61 367,-80 534.72,-50.85 580.04,-72.8 749,-52 757.25,-50.98 765.87,-49.75 774.42,-48.41"/>
<polygon fill="black" stroke="black" points="775.08,-51.85 784.4,-46.81 773.97,-44.94 775.08,-51.85"/>
</g>
<!-- ranch_acceptor3&#45;&gt;ranch_conns_sup3 -->
<g id="edge12" class="edge">
<title>ranch_acceptor3&#45;&gt;ranch_conns_sup3</title>
<path fill="none" stroke="black" stroke-dasharray="1,5" d="M502.5,-90.9C517.49,-86.76 534.34,-82.64 550,-80 723.56,-50.8 770.3,-73.29 945,-52 953.25,-50.99 961.87,-49.77 970.42,-48.43"/>
<polygon fill="black" stroke="black" points="971.09,-51.87 980.4,-46.83 969.97,-44.96 971.09,-51.87"/>
</g>
</g>
</svg>
